<svg xmlns="http://www.w3.org/2000/svg" xmlns:xlink="http://www.w3.org/1999/xlink" width="2000" zoomAndPan="magnify" viewBox="0 0 1500 1499.999933" height="2000" preserveAspectRatio="xMidYMid meet" version="1.0"><defs><g/><clipPath id="c90171573d"><path d="M 55.800781 55.800781 L 1242.199219 55.800781 L 1242.199219 1242.199219 L 55.800781 1242.199219 Z M 55.800781 55.800781 " clip-rule="nonzero"/></clipPath><clipPath id="2030cb5155"><path d="M 649 55.800781 C 321.382812 55.800781 55.800781 321.382812 55.800781 649 C 55.800781 976.613281 321.382812 1242.199219 649 1242.199219 C 976.613281 1242.199219 1242.199219 976.613281 1242.199219 649 C 1242.199219 321.382812 976.613281 55.800781 649 55.800781 Z M 649 55.800781 " clip-rule="nonzero"/></clipPath><clipPath id="14b40dc6f0"><rect x="0" width="53" y="0" height="209"/></clipPath><clipPath id="d99508bb4a"><rect x="0" width="513" y="0" height="847"/></clipPath><clipPath id="e0d5c3ec0c"><rect x="0" width="1298" y="0" height="1298"/></clipPath></defs><rect x="-150" width="1800" fill="#ffffff" y="-149.999993" height="1799.99992" fill-opacity="1"/><rect x="-150" width="1800" fill="#1c1c1c" y="-149.999993" height="1799.99992" fill-opacity="1"/><g transform="matrix(1, 0, 0, 1, 101, 101)"><g clip-path="url(#e0d5c3ec0c)"><g clip-path="url(#c90171573d)"><g clip-path="url(#2030cb5155)"><path stroke-linecap="butt" transform="matrix(3.7075, 0, 0, 3.7075, 55.800014, 55.799961)" fill="none" stroke-linejoin="miter" d="M 160.000017 0.000221269 C 71.63394 0.000221269 0.00020688 71.633954 0.00020688 160.000031 C 0.00020688 248.365054 71.63394 319.999841 160.000017 319.999841 C 248.36504 319.999841 319.999827 248.365054 319.999827 160.000031 C 319.999827 71.633954 248.36504 0.000221269 160.000017 0.000221269 Z M 160.000017 0.000221269 " stroke="#ffffff" stroke-width="5.259609" stroke-opacity="1" stroke-miterlimit="4"/></g></g><g transform="matrix(1, 0, 0, 1, 854, 794)"><g clip-path="url(#14b40dc6f0)"><g fill="#1c1c1c" fill-opacity="1"><g transform="translate(0.675029, 147.677394)"><g><path d="M 4.265625 -18.03125 C 4.265625 -24.1875 6.179688 -29.175781 10.015625 -33 C 13.847656 -36.832031 18.882812 -38.75 25.125 -38.75 C 31.28125 -38.75 36.273438 -36.832031 40.109375 -33 C 43.941406 -29.175781 45.859375 -24.1875 45.859375 -18.03125 C 45.859375 -11.78125 43.941406 -6.738281 40.109375 -2.90625 C 36.273438 0.925781 31.28125 2.84375 25.125 2.84375 C 18.882812 2.84375 13.847656 0.925781 10.015625 -2.90625 C 6.179688 -6.738281 4.265625 -11.78125 4.265625 -18.03125 Z M 4.265625 -18.03125 "/></g></g></g></g></g><g transform="matrix(1, 0, 0, 1, 355, 342)"><g clip-path="url(#d99508bb4a)"><g fill="#ffffff" fill-opacity="1"><g transform="translate(1.975054, 599.276236)"><g><path d="M 280.328125 11.53125 C 239.566406 11.53125 202.550781 4.035156 169.28125 -10.953125 C 136.019531 -25.953125 107.375 -46.910156 83.34375 -73.828125 C 59.3125 -100.742188 40.851562 -132.46875 27.96875 -169 C 15.09375 -205.53125 8.65625 -245.328125 8.65625 -288.390625 C 8.65625 -331.460938 15.09375 -371.265625 27.96875 -407.796875 C 40.851562 -444.328125 59.3125 -476.050781 83.34375 -502.96875 C 107.375 -529.882812 136.019531 -550.835938 169.28125 -565.828125 C 202.550781 -580.828125 239.566406 -588.328125 280.328125 -588.328125 C 317.242188 -588.328125 349.160156 -585.25 376.078125 -579.09375 C 402.992188 -572.945312 425.195312 -565.738281 442.6875 -557.46875 C 460.1875 -549.207031 473.164062 -542 481.625 -535.84375 C 490.082031 -529.6875 494.3125 -526.609375 494.3125 -526.609375 L 388.1875 -223.21875 L 382.421875 -223.21875 C 381.265625 -235.90625 378.953125 -252.726562 375.484375 -273.6875 C 372.023438 -294.644531 367.125 -317.523438 360.78125 -342.328125 C 354.4375 -367.128906 346.742188 -391.832031 337.703125 -416.4375 C 328.671875 -441.050781 318.191406 -463.644531 306.265625 -484.21875 C 294.347656 -504.789062 280.890625 -521.328125 265.890625 -533.828125 C 250.898438 -546.328125 234.367188 -552.578125 216.296875 -552.578125 C 196.679688 -552.578125 181.203125 -543.441406 169.859375 -525.171875 C 158.515625 -506.910156 152.84375 -482.394531 152.84375 -451.625 C 152.84375 -400.488281 160.34375 -355.019531 175.34375 -315.21875 C 190.34375 -275.414062 210.144531 -241.765625 234.75 -214.265625 C 259.363281 -186.773438 286.378906 -165.820312 315.796875 -151.40625 C 345.210938 -136.988281 374.34375 -129.585938 403.1875 -129.203125 C 417.789062 -129.203125 431.820312 -130.644531 445.28125 -133.53125 C 458.738281 -136.414062 470.367188 -141.03125 480.171875 -147.375 C 489.984375 -153.71875 496.234375 -161.503906 498.921875 -170.734375 C 504.304688 -145.347656 502.191406 -121.597656 492.578125 -99.484375 C 482.972656 -77.378906 467.882812 -57.960938 447.3125 -41.234375 C 426.738281 -24.515625 402.125 -11.539062 373.46875 -2.3125 C 344.820312 6.914062 313.773438 11.53125 280.328125 11.53125 Z M 280.328125 11.53125 "/></g></g></g></g></g></g></g></svg>